<svg xmlns="http://www.w3.org/2000/svg" viewBox="0 0 306.34 353.74"><defs><style>.cls-1{fill:#fff;}.cls-2{fill:none;}</style></defs><title>lyndlabs</title><g id="cube"><path class="cls-1" d="M249.86,73.13,96.68,161.57V338.43l153.18,88.44L403,338.43V161.57ZM388,164.45,249.86,244.23,111.68,164.45,249.86,84.68Zm-281.35,8.66,138.18,79.78V412.43L106.68,332.66ZM254.86,412.43V252.89L393,173.11V332.66Z" transform="translate(-96.68 -73.13)"/></g><g id="terminal"><path class="cls-1" d="M144.2,163.78l105.31-61.2,15.67,9-105.31,61.2-15.67-9.05m18.51,10.69L268,113.27l87.49,50.51L250.2,225l-87.49-50.51m198.45-10.69L249.49,99.31l-111,64.47,111.67,64.48,111-64.48" transform="translate(-96.68 -73.13)"/><path class="cls-1" d="M145.62,163.78l103.9-60.38,14.25,8.23L159.87,172l-14.25-8.23m119.56-52.15-15.67-9L144.2,163.78l15.67,9.05,105.31-61.2M164.12,174.47,268,114.08l86.08,49.7L250.2,224.16l-86.08-49.69m191.39-10.69L268,113.27l-105.31,61.2L250.2,225l105.31-61.2m-217,0,111-64.47,111.67,64.47-111,64.48L138.54,163.78m224.05,0-113.1-65.3-112.36,65.3,113.1,65.3,112.36-65.3" transform="translate(-96.68 -73.13)"/><path class="cls-1" d="M251.58,110.44a5.07,5.07,0,0,0-4.64,0c-1.28.74-1.27,2,0,2.69a5.15,5.15,0,0,0,4.65,0c1.28-.75,1.26-1.95,0-2.69" transform="translate(-96.68 -73.13)"/><path class="cls-1" d="M247,113.13c-1.28-.74-1.29-1.95,0-2.69a5.07,5.07,0,0,1,4.64,0c1.28.74,1.3,1.94,0,2.69a5.15,5.15,0,0,1-4.65,0m5.34-3.1a6.67,6.67,0,0,0-6.06,0c-1.66,1-1.66,2.54,0,3.51a6.74,6.74,0,0,0,6.06,0c1.66-1,1.65-2.54,0-3.51" transform="translate(-96.68 -73.13)"/><path class="cls-1" d="M232.94,121.27a5.1,5.1,0,0,0-4.64,0c-1.28.74-1.27,2,0,2.69a5.15,5.15,0,0,0,4.65,0c1.28-.74,1.26-1.95,0-2.69" transform="translate(-96.68 -73.13)"/><path class="cls-1" d="M228.31,124c-1.28-.74-1.29-1.95,0-2.69a5.1,5.1,0,0,1,4.64,0c1.28.74,1.3,2,0,2.69a5.15,5.15,0,0,1-4.65,0m5.34-3.1a6.67,6.67,0,0,0-6.06,0c-1.67,1-1.65,2.54,0,3.51a6.74,6.74,0,0,0,6.06,0c1.66-1,1.66-2.54,0-3.51" transform="translate(-96.68 -73.13)"/><path class="cls-1" d="M242.26,115.85a5.13,5.13,0,0,0-4.64,0c-1.28.74-1.27,2,0,2.69a5.15,5.15,0,0,0,4.65,0c1.27-.74,1.27-2,0-2.69" transform="translate(-96.68 -73.13)"/><path class="cls-1" d="M237.63,118.54c-1.28-.74-1.29-2,0-2.69a5.13,5.13,0,0,1,4.64,0c1.29.74,1.29,2,0,2.69a5.15,5.15,0,0,1-4.65,0m5.34-3.1a6.74,6.74,0,0,0-6.06,0c-1.67,1-1.65,2.54,0,3.51a6.67,6.67,0,0,0,6.06,0c1.66-1,1.66-2.54,0-3.51" transform="translate(-96.68 -73.13)"/><polygon class="cls-2" points="40.44 90.65 152.81 25.35 265.9 90.65 153.54 155.95 40.44 90.65"/><polyline class="cls-1" points="130.38 105.87 127.36 104.13 116.05 110.69 96.41 99.36 93.25 101.19 115.92 114.28 119.08 112.44 130.38 105.87"/><polyline class="cls-1" points="126.52 81.86 123 83.9 128.3 92.67 113.15 89.63 109.64 91.67 129.95 95.45 139.16 100.77 142.32 98.94 133.11 93.61 126.52 81.86"/><polyline class="cls-1" points="170.66 82.45 148.01 69.37 144.88 71.19 161.82 80.97 134.25 77.37 131.38 79.04 154.02 92.11 157.15 90.29 140.48 80.67 167.76 84.13 170.66 82.45"/><path class="cls-1" d="M259,137.7l4.07-2.37a10.61,10.61,0,0,1,5.17-1.49,9.6,9.6,0,0,1,5,1.32l6.67,3.85c1.58.92,2.34,1.89,2.3,2.92s-.9,2-2.56,3l-4.07,2.37L259,137.7m24.06-.64-6.42-3.71a15.8,15.8,0,0,0-11.1-1.85,18.17,18.17,0,0,0-5.59,2.14L256,136l-3.16,1.84,22.66,13.08,2.14-1.24,5-2.9a10,10,0,0,0,3.68-3.24,3.26,3.26,0,0,0,.16-3.31,8.2,8.2,0,0,0-3.39-3.12" transform="translate(-96.68 -73.13)"/><polyline class="cls-1" points="169.4 128.4 166.37 126.65 155.07 133.22 135.43 121.88 132.27 123.72 154.94 136.8 158.1 134.97 169.4 128.4"/><path class="cls-1" d="M268.31,191l-6.78-8,13.81,3.9-7,4.08m21.16-3-31-8.26-2.69,1.57,14.36,17.91,3.41-2-3.28-3.85,9.09-5.28,6.67,1.88,3.41-2" transform="translate(-96.68 -73.13)"/><path class="cls-1" d="M278.84,171.28l5.16-3a8.54,8.54,0,0,1,3.81-1.25,6.36,6.36,0,0,1,3.53.9c1.08.62,1.6,1.26,1.56,1.93s-.65,1.33-1.82,2l-5.59,3.25-6.65-3.84m9.52,5.49,5.59-3.24a8.13,8.13,0,0,1,2.63-1,6.47,6.47,0,0,1,2.52,0,8.28,8.28,0,0,1,2.38.91l0,0c1.11.64,1.6,1.35,1.48,2.13s-1,1.64-2.57,2.57l-4.82,2.8-7.25-4.19m16.63-5-.05,0a10.07,10.07,0,0,0-3-1.14,12,12,0,0,0-3.44-.23,10.3,10.3,0,0,0-3.33.81,3.55,3.55,0,0,0,1.31-1.9,2.26,2.26,0,0,0-.38-1.8,5.07,5.07,0,0,0-1.74-1.52,12,12,0,0,0-4-1.47,11.86,11.86,0,0,0-4.32.05,13.85,13.85,0,0,0-4.4,1.7l-5.73,3.32-3.14,1.83,22.67,13.09,1.85-1.08,7.28-4.23a7.13,7.13,0,0,0,2.73-2.48,2.67,2.67,0,0,0,.14-2.59,5.73,5.73,0,0,0-2.43-2.34" transform="translate(-96.68 -73.13)"/><path class="cls-1" d="M327.13,158.72l0,0a10.87,10.87,0,0,0-4.44-1.49,12.61,12.61,0,0,0-4.15.26,33.6,33.6,0,0,0-4.41,1.4l-.21.08-.19.09-.14.05-.15.06c-1.4.54-2.52.94-3.4,1.2a9,9,0,0,1-2.62.38,4.89,4.89,0,0,1-2.5-.68h0c-1.13-.66-1.58-1.41-1.35-2.26s1.12-1.73,2.66-2.63a13,13,0,0,1,3.05-1.21,24.38,24.38,0,0,1,4-.67l-.73-2.49a31,31,0,0,0-3.56.53,25.57,25.57,0,0,0-3.09.89,16.39,16.39,0,0,0-2.63,1.23,10.61,10.61,0,0,0-3.55,3,3,3,0,0,0-.47,2.9,5.81,5.81,0,0,0,2.66,2.62h0a11,11,0,0,0,4.7,1.55,12.49,12.49,0,0,0,4.22-.37,45.44,45.44,0,0,0,4.56-1.63l.28-.11.11-.05.12,0a31.06,31.06,0,0,1,3.12-1.1,8.32,8.32,0,0,1,2.6-.32,5.24,5.24,0,0,1,2.49.73h0c1.11.64,1.53,1.39,1.23,2.27s-1.25,1.78-2.88,2.73a16.21,16.21,0,0,1-3.92,1.63,20.26,20.26,0,0,1-4.52.67l.46,2.55a25.91,25.91,0,0,0,3.93-.48,22.71,22.71,0,0,0,3.65-1l1.77-.67,1.63-.94a11.83,11.83,0,0,0,3.69-3,3.13,3.13,0,0,0,.58-2.94,5.38,5.38,0,0,0-2.57-2.62" transform="translate(-96.68 -73.13)"/><polygon class="cls-2" points="93.25 101.19 175.09 53.63 237.01 89.38 155.17 136.94 93.25 101.19"/></g><g id="pcb"><polygon class="cls-2" points="172 318.48 171.82 253.91 171.64 189.34 227.83 156.89 284.02 124.45 284.2 189.02 284.39 253.6 228.2 286.04 172 318.48"/><path class="cls-1" d="M380.71,197.58,268.32,262.47l.37,129.14,112.38-64.88ZM338.63,347.14l-24,13.87V344.59a5.7,5.7,0,1,0-3,0v18.15l-19.4,11.2V329.17L310.43,311V273.08a5.69,5.69,0,1,0-3,0v36.64l-18.2,18.2v47.75l-17,9.81-.35-121,17.35-10V292a5.69,5.69,0,1,0,3,0V252.75l31.6-18.24v76.83a5.68,5.68,0,1,0,3-.17V284.71l11.8,11.81Zm22.05-12.73V285.62L343,267.89V244.94a5.7,5.7,0,1,0-3,0v24.19l17.73,17.73v49.29l-16.05,9.26V295.28l-14.8-14.81V232.78L357.68,215v40.67a5.7,5.7,0,1,0,3,0v-42.4l16.49-9.52.35,121Z" transform="translate(-96.68 -73.13)"/></g><g id="_3d_printer" data-name="3d printer"><path class="cls-2" d="M175.3,284.45" transform="translate(-96.68 -73.13)"/><path class="cls-1" d="M177.38,281.88l-5-7.53,0-7,10,5.78,0,7-5,1.76m-14.73-24.27,0-10.11,29.54,17.05,0,10.12-29.54-17.06m16.44,28.91,6.84-2.42,0-9,9.77,5.64,0-14.19L229,285.76l-.28,99.72-8.91-5.14-87.47-50.5-8.91-5.14.28-99.73,35.47,20.48,0,14.19,9.77,5.64,0,9,6.81,10.3,0,0s1,5.84-2.73,5.12c-7-1.1-24.71-11.21-25-6.29-.36,3.24,3.83,6.5,29.31,23.15,7.41,4.83,16.79,11,22.21,15-5.43-2.25-14.81-7-22.23-10.68-25.48-12.79-29.32-14.19-29.33-10.71s3.82,6.51,29.3,23.14c7.42,4.85,16.8,11,22.22,15-5.43-2.25-14.82-7-22.24-10.68-25.48-12.78-29.32-14.18-29.33-10.71s3.82,6.5,29.31,23.15c8.38,5.48,26.5,18.16,26.62,18.23,1,.56,2,.34,2-.79a4.63,4.63,0,0,0-2-3.33c-4.14-3.26-13.6-9.68-26.4-18-7.42-4.85-16.8-11-22.22-15,5.42,2.24,14.8,7,22.23,10.68,25.49,12.78,29.33,14.18,29.34,10.71s-3.82-6.51-29.31-23.15c-7.41-4.85-16.79-11-22.21-15,5.42,2.25,14.81,7,22.23,10.68,25.49,12.79,29.33,14.19,29.34,10.72s-3.83-6.51-29.31-23.15c-7.42-4.84-16.79-11-22.21-15,2.6,1.08,16.06,8,21.35,7.25,3.62-.49,2.57-8.27,2.57-8.27l0,0M123.68,220.9l0-17.19L229,264.5l0,17.19L123.68,220.9m108.9,41.57L120.19,197.58l-.37,129.15,112.39,64.88.37-129.14" transform="translate(-96.68 -73.13)"/><polygon class="cls-2" points="23.14 253.59 23.5 124.45 135.89 189.34 135.52 318.48 23.14 253.59"/></g></svg>